<svg id="Layer_1" data-name="Layer 1" xmlns="http://www.w3.org/2000/svg" viewBox="0 0 454.34 234.38"><defs><style>.cls-1{fill:#d13e40;}.cls-2{fill:#bc111f;}.cls-3{fill:#fff;}</style></defs><path class="cls-1" d="M394.84,144.14,434,161l-19.59,15.27,6.09,29.65a61.46,61.46,0,0,0-6.09-5.53h0a10.78,10.78,0,0,0-1.66-1.17C343.15,159.67,276,161.84,276,161.84l-58.65-9.07-86.53,15.75c-86.76,20.18-92.74,37.36-92.74,37.36l5.31-29.65L25.47,160.74l38.06-16.6"/><path class="cls-2" d="M423.78,212l-4.67-4.79a57.64,57.64,0,0,0-5.78-5.28l-.17-.13a9,9,0,0,0-1.36-1,293.93,293.93,0,0,0-93.86-33.25c-25-4.32-41.72-3.84-41.88-3.83h-.18l-58.51-9.06-86.16,15.69C48,189.79,40,206.43,39.9,206.6l0-.07-3.78-1L41.27,177l-19.44-16.8,40.92-17.84,1.57,3.59L29.1,161.29l16.42,14.19-4.3,24A63.92,63.92,0,0,1,51,193.05c16.53-9.13,43.25-18,79.4-26.44l.1,0,86.85-15.81,58.8,9.1c2,0,18.22-.3,42.49,3.89,23.41,4,58.92,13.16,95.12,33.71a12.25,12.25,0,0,1,1.89,1.31c.51.36,1.11.84,1.72,1.37l-5.07-24.73,17.93-14-36.13-15.51,1.55-3.6,42.21,18.13L416.59,177Z"/><path class="cls-1" d="M307.35,100a683.77,683.77,0,0,0-81-4.83,576.56,576.56,0,0,0-75.58,4.66l14.31-8.88L136.87,78.59l36.26-3.14-7.89-14.6,40.61,13.9L188.28,29,214.2,42.54l15.08-29.11L244.4,43.25l25.08-13.73L252.57,75.46,293,61l-7.41,15.09,35.12,2.58L291.91,91.23Z"/><path class="cls-2" d="M229.26,17.72l12.48,24.61,1.83,3.61L247.12,44l18.72-10.26L252.18,70.86l-2.89,7.86,7.89-2.82L289.1,64.47l-4,8.15-2.56,5.21,5.79.42L312.66,80l-17.94,7.83L287.54,91l6.81,3.86L298.07,97a685.56,685.56,0,0,0-71.69-3.78,603.68,603.68,0,0,0-67,3.58L163,94.57l6.33-3.93-6.83-3L144.7,79.88l25.62-2.22,6-.51-2.84-5.25-4.09-7.57,31.91,10.92L209.18,78l-3-7.82L192,33.12l19.59,10.25L215,45.19l1.81-3.49,12.42-24m0-8.59L213.36,39.9l-28.77-15,17.93,46.7L161.13,57.38,170,73.76,129,77.3l31.87,13.94-19.25,11.94s32.79-6.07,84.72-6.07a681.84,681.84,0,0,1,90.56,6.07L296.28,91.46,328.74,77.3l-40.13-3,8.26-16.82-41,14.68,17.26-46.92L245.23,40.56,229.3,9.13Z"/><path class="cls-1" d="M51.43,122.24C84,112.6,179,105.34,181.59,105.14c13.73-.32,27.27-.49,40.27-.49,121.61,0,174.84,14.33,185.06,17.48-.92,3.05-2.56,9.82-6,25.44-2.23,10.22-4.38,20.47-5.22,24.49l-35.82-4.63c-30.6-3.88-67-5.84-108.28-5.84-67.43,0-125.07,5.33-125.65,5.39-10.15.79-53.91,6.82-63.56,8.16Z"/><path class="cls-2" d="M221.86,106.61c70.74,0,117.61,4.88,144.47,9,20.35,3.11,32.6,6.24,38.17,7.86-1.06,3.91-2.67,10.89-5.46,23.7-2,9-3.85,17.94-4.85,22.74l-34-4.41c-30.67-3.88-67.18-5.85-108.52-5.85-66.86,0-124.14,5.24-125.8,5.39-9.74.77-49.48,6.22-61.86,7.93L53.71,123.63c33.63-9.29,124.45-16.27,128-16.53,13.69-.33,27.21-.49,40.17-.49m0-3.92q-19.05,0-40.37.49S80.8,110.72,49.15,120.9l11.73,56.43s54-7.52,65.29-8.41c0,0,57.35-5.37,125.46-5.37,35.28,0,73.44,1.44,108,5.82l37.62,4.87S408.12,122,409.45,120.9c0,0-49.56-18.21-187.59-18.21Z"/><path class="cls-3" d="M81.79,152.13,96,150l.9,5.92L75.1,159.2,71,132.1l21.25-3.22.9,5.92-13.67,2.07Zm-2.16-10.6,12.58-1.91.87,5.73L80.5,147.26Z"/><path class="cls-3" d="M100.89,155.3,97.7,128.08l6.34-.75,13.45,17.19-3.35.4,8.8-19.8,6.34-.75,3.27,27.22-7.08.83-2-16.44,1.2-.14-6.59,14.73-3.42.4L104.6,138.19l1.48-.17L108,154.47Z"/><path class="cls-3" d="M137.8,151.13l-2.3-27.32,14-1.18q5.39-.45,8.2,1.29a6.18,6.18,0,0,1,3.09,5,6.28,6.28,0,0,1-.8,3.78,7.47,7.47,0,0,1-2.91,2.76,11.33,11.33,0,0,1-4.7,1.32l.62-1.94a13.24,13.24,0,0,1,5.11.46,7.45,7.45,0,0,1,3.55,2.25,6.85,6.85,0,0,1,1.53,3.94,6.33,6.33,0,0,1-2.4,5.76q-2.7,2.22-8.21,2.68ZM145,144.9l6.48-.55a5.45,5.45,0,0,0,3-.94,2.63,2.63,0,0,0-.35-4.17,5.51,5.51,0,0,0-3.08-.43l-7,.59-.46-5.34,5.86-.5a5.25,5.25,0,0,0,2.87-.91,2.23,2.23,0,0,0,.8-2.07,2.2,2.2,0,0,0-1.14-1.89,5.42,5.42,0,0,0-3-.39l-5.31.44Z"/><path class="cls-3" d="M167.64,148.69l-1.54-27.37,12.51-.7a15.91,15.91,0,0,1,6.54.84,9.46,9.46,0,0,1,4.4,3.27,9.63,9.63,0,0,1,1.79,5.33,9.09,9.09,0,0,1-5.19,9.1,16.21,16.21,0,0,1-6.41,1.55l-8.21.46,3.26-3.43.59,10.51Zm7.2-10.13-3.64-3.37,7.74-.43a5.3,5.3,0,0,0,3.55-1.26,3.71,3.71,0,0,0,1-3,3.75,3.75,0,0,0-1.36-2.91,5.37,5.37,0,0,0-3.67-.85l-7.74.44,3.24-3.76Zm9.73,9.18-7.36-9.59,8.25-.46,7.4,9.58Z"/><path class="cls-3" d="M210.2,147.32a17,17,0,0,1-6.09-.91,14.26,14.26,0,0,1-4.91-2.87,13.52,13.52,0,0,1-3.31-4.44,14,14,0,0,1,2.79-15.95,14.36,14.36,0,0,1,4.76-3.12,18,18,0,0,1,12.15-.31,14.16,14.16,0,0,1,8.18,7.31A14.07,14.07,0,0,1,221,143a14.32,14.32,0,0,1-4.72,3.09A16.77,16.77,0,0,1,210.2,147.32ZM210,140.9a7.72,7.72,0,0,0,2.9-.63,6.63,6.63,0,0,0,2.31-1.64,7.36,7.36,0,0,0,1.5-2.53,8.58,8.58,0,0,0,.49-3.22,8.79,8.79,0,0,0-.65-3.22,7.48,7.48,0,0,0-1.63-2.42,6.62,6.62,0,0,0-2.39-1.53,7.64,7.64,0,0,0-2.93-.47,7.53,7.53,0,0,0-2.9.62,6.79,6.79,0,0,0-2.31,1.65,7.32,7.32,0,0,0-1.5,2.5,8.61,8.61,0,0,0-.49,3.25,8.76,8.76,0,0,0,.65,3.19,7.51,7.51,0,0,0,1.63,2.45,6.73,6.73,0,0,0,2.39,1.52A7.68,7.68,0,0,0,210,140.9Z"/><path class="cls-3" d="M229.34,146.46l0-27.41h7.75l0,27.41Z"/><path class="cls-3" d="M242.45,146.39l.64-27.41,13,.3a18.13,18.13,0,0,1,7.95,1.87,13,13,0,0,1,5.27,4.87,14.6,14.6,0,0,1-.34,14.54,12.91,12.91,0,0,1-5.49,4.63,18,18,0,0,1-8,1.5Zm7.9-6,4.89.12a9,9,0,0,0,4.11-.79,6.39,6.39,0,0,0,2.78-2.52,8.86,8.86,0,0,0,.19-8.12,6.36,6.36,0,0,0-2.66-2.63,8.93,8.93,0,0,0-4.07-1l-4.89-.11Z"/><path class="cls-3" d="M282.56,141.73l14.31.82-.34,6-22-1.26,1.57-27.37,21.46,1.23-.34,6-13.8-.8Zm.08-10.82,12.7.73-.33,5.78-12.71-.73Z"/><path class="cls-3" d="M300.59,148.83l2.52-27.3,12.48,1.15a15.82,15.82,0,0,1,6.34,1.81,9.33,9.33,0,0,1,3.87,3.88,9.7,9.7,0,0,1,1,5.53,9.11,9.11,0,0,1-6.49,8.23,16,16,0,0,1-6.56.6l-8.19-.76,3.73-2.92-1,10.49Zm8.62-9L306.1,136l7.72.72a5.33,5.33,0,0,0,3.71-.72,3.74,3.74,0,0,0,1.46-2.82,3.78,3.78,0,0,0-.92-3.07,5.33,5.33,0,0,0-3.51-1.39l-7.72-.71,3.76-3.23Zm8.27,10.52-5.87-10.57,8.23.76,5.9,10.57Z"/><path class="cls-3" d="M337.58,146.64l14.21,1.86-.78,5.94-21.82-2.85,3.56-27.19,21.31,2.79-.77,5.95-13.71-1.8Zm.86-10.79,12.62,1.65-.76,5.75-12.62-1.65Z"/><path class="cls-3" d="M355,155l4.76-27,12.77,2.26a18,18,0,0,1,7.57,3,13,13,0,0,1,4.48,5.6,14.58,14.58,0,0,1-2.53,14.33,12.76,12.76,0,0,1-6.13,3.75,17.87,17.87,0,0,1-8.16.27Zm8.71-4.75,4.82.85a8.8,8.8,0,0,0,4.18-.15,6.45,6.45,0,0,0,3.13-2.07,9,9,0,0,0,1.42-8,6.49,6.49,0,0,0-2.24-3,8.9,8.9,0,0,0-3.88-1.57l-4.82-.85Z"/><path d="M113.18,201.65v-22.1h10.1a12.85,12.85,0,0,1,5.23,1,7.71,7.71,0,0,1,3.39,2.83,7.84,7.84,0,0,1,1.2,4.37,7.45,7.45,0,0,1-4.59,7.15,12.51,12.51,0,0,1-5.23,1h-6.63l2.78-2.72v8.5Zm6.25-7.83-2.78-2.88h6.25a4.28,4.28,0,0,0,2.92-.85,3,3,0,0,0,1-2.37,3.05,3.05,0,0,0-1-2.4,4.28,4.28,0,0,0-2.92-.85h-6.25l2.78-2.87Z"/><path d="M143,201.65l9.76-22.1h6.16l9.78,22.1h-6.5l-7.64-19H157l-7.64,19Zm5.34-4.3,1.61-4.61h10.8l1.61,4.61Z"/><path d="M184.72,201.65V184.5h-6.79v-4.95h19.8v4.95H191v17.15Z"/><path d="M221.41,202.09a13.65,13.65,0,0,1-4.85-.84,11.3,11.3,0,0,1-3.85-2.38,11.15,11.15,0,0,1-2.54-3.65,12.09,12.09,0,0,1,0-9.25,11,11,0,0,1,6.39-6,13.65,13.65,0,0,1,4.85-.84,13.3,13.3,0,0,1,5.48,1.08,10.4,10.4,0,0,1,4,3.09l-4,3.6a8,8,0,0,0-2.35-1.93,6.12,6.12,0,0,0-2.86-.66,6.93,6.93,0,0,0-2.49.44,5.3,5.3,0,0,0-1.94,1.28,5.92,5.92,0,0,0-1.26,2,7.49,7.49,0,0,0,0,5.17,5.92,5.92,0,0,0,1.26,2,5.3,5.3,0,0,0,1.94,1.28,6.93,6.93,0,0,0,2.49.44,6.12,6.12,0,0,0,2.86-.66,8,8,0,0,0,2.35-1.93l4,3.6a10.77,10.77,0,0,1-4,3.08A13.3,13.3,0,0,1,221.41,202.09Z"/><path d="M250.58,201.65h-6.25v-22.1h6.25Zm9-8.62h-9.41v-5.18h9.41Zm-.44-13.48h6.25v22.1h-6.25Z"/><path d="M288.72,196.82h11.56v4.83H282.53v-22.1h17.33v4.83H288.72Zm-.44-8.72h10.26v4.67H288.28Z"/><path d="M324.27,202.09a20.11,20.11,0,0,1-5.23-.68,13.6,13.6,0,0,1-4.08-1.75l2.05-4.61a14.55,14.55,0,0,0,3.42,1.56,12.82,12.82,0,0,0,3.87.62,7.45,7.45,0,0,0,2.09-.24,2.59,2.59,0,0,0,1.15-.63,1.39,1.39,0,0,0-.33-2.13,6.3,6.3,0,0,0-1.8-.73c-.74-.19-1.56-.38-2.45-.57a25.9,25.9,0,0,1-2.68-.72,10.64,10.64,0,0,1-2.45-1.16,5.53,5.53,0,0,1-1.8-1.86,5.61,5.61,0,0,1-.69-2.92,6.3,6.3,0,0,1,1.08-3.6,7.6,7.6,0,0,1,3.27-2.59,13.28,13.28,0,0,1,5.43-1,19.18,19.18,0,0,1,4.28.49,13.74,13.74,0,0,1,3.74,1.44l-1.92,4.64a15.41,15.41,0,0,0-3.13-1.28,11.42,11.42,0,0,0-3-.42,6.9,6.9,0,0,0-2.08.26,2.41,2.41,0,0,0-1.14.71,1.63,1.63,0,0,0-.35,1,1.32,1.32,0,0,0,.68,1.16,6.15,6.15,0,0,0,1.8.69c.75.18,1.57.36,2.46.55s1.79.43,2.69.71a10.51,10.51,0,0,1,2.44,1.14,5.49,5.49,0,0,1,1.79,1.86,5.67,5.67,0,0,1,.68,2.89A6.27,6.27,0,0,1,333,198.5a7.48,7.48,0,0,1-3.25,2.61A13.32,13.32,0,0,1,324.27,202.09Z"/></svg>